<svg width="88" height="14" viewBox="0 0 88 14" fill="none" xmlns="http://www.w3.org/2000/svg">
<path d="M0 5.0767V4.91774C0 3.002 1.38459 1.36801 3.27237 1.05338C4.49745 0.845362 5.7938 1.25263 6.68726 2.14746L6.69937 2.15955C6.87237 2.33227 7.15421 2.32678 7.32035 2.14746C8.23848 1.25263 9.51016 0.845362 10.7599 1.05338C12.6482 1.36801 14.0323 3.002 14.0323 4.91774V5.0767C14.0323 6.21408 13.5609 7.30213 12.7277 8.07774L7.77531 12.7013C7.56976 12.8931 7.29843 13 7.01614 13C6.73385 13 6.46252 12.8931 6.25697 12.7013L1.30429 8.07774C0.472219 7.30213 0 6.21408 0 5.0767Z" fill="#838383"/>
<path d="M21.2715 2.42188V11H20.1875V3.77539L18.002 4.57227V3.59375L21.1016 2.42188H21.2715ZM25.8301 6.93945L24.9629 6.7168L25.3906 2.46875H29.7676V3.4707H26.3105L26.0527 5.79102C26.209 5.70117 26.4062 5.61719 26.6445 5.53906C26.8867 5.46094 27.1641 5.42188 27.4766 5.42188C27.8711 5.42188 28.2246 5.49023 28.5371 5.62695C28.8496 5.75977 29.1152 5.95117 29.334 6.20117C29.5566 6.45117 29.7266 6.75195 29.8438 7.10352C29.9609 7.45508 30.0195 7.84766 30.0195 8.28125C30.0195 8.69141 29.9629 9.06836 29.8496 9.41211C29.7402 9.75586 29.5742 10.0566 29.3516 10.3145C29.1289 10.5684 28.8477 10.7656 28.5078 10.9062C28.1719 11.0469 27.7754 11.1172 27.3184 11.1172C26.9746 11.1172 26.6484 11.0703 26.3398 10.9766C26.0352 10.8789 25.7617 10.7324 25.5195 10.5371C25.2812 10.3379 25.0859 10.0918 24.9336 9.79883C24.7852 9.50195 24.6914 9.1543 24.6523 8.75586H25.6836C25.7305 9.07617 25.8242 9.3457 25.9648 9.56445C26.1055 9.7832 26.2891 9.94922 26.5156 10.0625C26.7461 10.1719 27.0137 10.2266 27.3184 10.2266C27.5762 10.2266 27.8047 10.1816 28.0039 10.0918C28.2031 10.002 28.3711 9.87305 28.5078 9.70508C28.6445 9.53711 28.748 9.33398 28.8184 9.0957C28.8926 8.85742 28.9297 8.58984 28.9297 8.29297C28.9297 8.02344 28.8926 7.77344 28.8184 7.54297C28.7441 7.3125 28.6328 7.11133 28.4844 6.93945C28.3398 6.76758 28.1621 6.63477 27.9512 6.54102C27.7402 6.44336 27.498 6.39453 27.2246 6.39453C26.8613 6.39453 26.5859 6.44336 26.3984 6.54102C26.2148 6.63867 26.0254 6.77148 25.8301 6.93945Z" fill="#838383"/>
<path d="M50.4459 4.64239C50.4068 4.54143 50.4707 4.42857 50.5789 4.42857C51.9737 4.42857 53.1053 5.55625 53.1053 7C53.1053 8.41964 51.9737 9.57143 50.5789 9.57143C49.1605 9.57143 48.0526 8.41964 48.0526 7C48.0526 6.89066 48.1672 6.82653 48.2688 6.86705C48.4621 6.94417 48.6735 7 48.8947 7C49.8237 7 50.5789 6.23125 50.5789 5.28571C50.5789 5.05816 50.5229 4.84084 50.4459 4.64239ZM55.6474 3.15893C56.879 4.32143 57.7026 5.69018 58.0921 6.67054C58.1789 6.88214 58.1789 7.11786 58.0921 7.32946C57.7026 8.28571 56.879 9.65446 55.6474 10.8411C54.4079 12.0143 52.7053 13 50.5789 13C48.4526 13 46.75 12.0143 45.5111 10.8411C44.2795 9.65446 43.4563 8.28571 43.0648 7.32946C42.9784 7.11786 42.9784 6.88214 43.0648 6.67054C43.4563 5.69018 44.2795 4.32143 45.5111 3.15893C46.75 1.98679 48.4526 1 50.5789 1C52.7053 1 54.4079 1.98679 55.6474 3.15893ZM50.5789 3.14286C48.4868 3.14286 46.7895 4.87054 46.7895 7C46.7895 9.12946 48.4868 10.8571 50.5789 10.8571C52.6711 10.8571 54.3684 9.12946 54.3684 7C54.3684 4.87054 52.6711 3.14286 50.5789 3.14286Z" fill="#838383"/>
<path d="M67.2988 10.1094V11H61.7148V10.2207L64.5098 7.10938C64.8535 6.72656 65.1191 6.40234 65.3066 6.13672C65.498 5.86719 65.6309 5.62695 65.7051 5.41602C65.7832 5.20117 65.8223 4.98242 65.8223 4.75977C65.8223 4.47852 65.7637 4.22461 65.6465 3.99805C65.5332 3.76758 65.3652 3.58398 65.1426 3.44727C64.9199 3.31055 64.6504 3.24219 64.334 3.24219C63.9551 3.24219 63.6387 3.31641 63.3848 3.46484C63.1348 3.60938 62.9473 3.8125 62.8223 4.07422C62.6973 4.33594 62.6348 4.63672 62.6348 4.97656H61.5508C61.5508 4.49609 61.6562 4.05664 61.8672 3.6582C62.0781 3.25977 62.3906 2.94336 62.8047 2.70898C63.2188 2.4707 63.7285 2.35156 64.334 2.35156C64.873 2.35156 65.334 2.44727 65.7168 2.63867C66.0996 2.82617 66.3926 3.0918 66.5957 3.43555C66.8027 3.77539 66.9062 4.17383 66.9062 4.63086C66.9062 4.88086 66.8633 5.13477 66.7773 5.39258C66.6953 5.64648 66.5801 5.90039 66.4316 6.1543C66.2871 6.4082 66.1172 6.6582 65.9219 6.9043C65.7305 7.15039 65.5254 7.39258 65.3066 7.63086L63.0215 10.1094H67.2988ZM73.8145 6.05469V7.35547C73.8145 8.05469 73.752 8.64453 73.627 9.125C73.502 9.60547 73.3223 9.99219 73.0879 10.2852C72.8535 10.5781 72.5703 10.791 72.2383 10.9238C71.9102 11.0527 71.5391 11.1172 71.125 11.1172C70.7969 11.1172 70.4941 11.0762 70.2168 10.9941C69.9395 10.9121 69.6895 10.7812 69.4668 10.6016C69.248 10.418 69.0605 10.1797 68.9043 9.88672C68.748 9.59375 68.6289 9.23828 68.5469 8.82031C68.4648 8.40234 68.4238 7.91406 68.4238 7.35547V6.05469C68.4238 5.35547 68.4863 4.76953 68.6113 4.29688C68.7402 3.82422 68.9219 3.44531 69.1562 3.16016C69.3906 2.87109 69.6719 2.66406 70 2.53906C70.332 2.41406 70.7031 2.35156 71.1133 2.35156C71.4453 2.35156 71.75 2.39258 72.0273 2.47461C72.3086 2.55273 72.5586 2.67969 72.7773 2.85547C72.9961 3.02734 73.1816 3.25781 73.334 3.54688C73.4902 3.83203 73.6094 4.18164 73.6914 4.5957C73.7734 5.00977 73.8145 5.49609 73.8145 6.05469ZM72.7246 7.53125V5.87305C72.7246 5.49023 72.7012 5.1543 72.6543 4.86523C72.6113 4.57227 72.5469 4.32227 72.4609 4.11523C72.375 3.9082 72.2656 3.74023 72.1328 3.61133C72.0039 3.48242 71.8535 3.38867 71.6816 3.33008C71.5137 3.26758 71.3242 3.23633 71.1133 3.23633C70.8555 3.23633 70.627 3.28516 70.4277 3.38281C70.2285 3.47656 70.0605 3.62695 69.9238 3.83398C69.791 4.04102 69.6895 4.3125 69.6191 4.64844C69.5488 4.98438 69.5137 5.39258 69.5137 5.87305V7.53125C69.5137 7.91406 69.5352 8.25195 69.5781 8.54492C69.625 8.83789 69.6934 9.0918 69.7832 9.30664C69.873 9.51758 69.9824 9.69141 70.1113 9.82812C70.2402 9.96484 70.3887 10.0664 70.5566 10.1328C70.7285 10.1953 70.918 10.2266 71.125 10.2266C71.3906 10.2266 71.623 10.1758 71.8223 10.0742C72.0215 9.97266 72.1875 9.81445 72.3203 9.59961C72.457 9.38086 72.5586 9.10156 72.625 8.76172C72.6914 8.41797 72.7246 8.00781 72.7246 7.53125ZM80.5645 6.05469V7.35547C80.5645 8.05469 80.502 8.64453 80.377 9.125C80.252 9.60547 80.0723 9.99219 79.8379 10.2852C79.6035 10.5781 79.3203 10.791 78.9883 10.9238C78.6602 11.0527 78.2891 11.1172 77.875 11.1172C77.5469 11.1172 77.2441 11.0762 76.9668 10.9941C76.6895 10.9121 76.4395 10.7812 76.2168 10.6016C75.998 10.418 75.8105 10.1797 75.6543 9.88672C75.498 9.59375 75.3789 9.23828 75.2969 8.82031C75.2148 8.40234 75.1738 7.91406 75.1738 7.35547V6.05469C75.1738 5.35547 75.2363 4.76953 75.3613 4.29688C75.4902 3.82422 75.6719 3.44531 75.9062 3.16016C76.1406 2.87109 76.4219 2.66406 76.75 2.53906C77.082 2.41406 77.4531 2.35156 77.8633 2.35156C78.1953 2.35156 78.5 2.39258 78.7773 2.47461C79.0586 2.55273 79.3086 2.67969 79.5273 2.85547C79.7461 3.02734 79.9316 3.25781 80.084 3.54688C80.2402 3.83203 80.3594 4.18164 80.4414 4.5957C80.5234 5.00977 80.5645 5.49609 80.5645 6.05469ZM79.4746 7.53125V5.87305C79.4746 5.49023 79.4512 5.1543 79.4043 4.86523C79.3613 4.57227 79.2969 4.32227 79.2109 4.11523C79.125 3.9082 79.0156 3.74023 78.8828 3.61133C78.7539 3.48242 78.6035 3.38867 78.4316 3.33008C78.2637 3.26758 78.0742 3.23633 77.8633 3.23633C77.6055 3.23633 77.377 3.28516 77.1777 3.38281C76.9785 3.47656 76.8105 3.62695 76.6738 3.83398C76.541 4.04102 76.4395 4.3125 76.3691 4.64844C76.2988 4.98438 76.2637 5.39258 76.2637 5.87305V7.53125C76.2637 7.91406 76.2852 8.25195 76.3281 8.54492C76.375 8.83789 76.4434 9.0918 76.5332 9.30664C76.623 9.51758 76.7324 9.69141 76.8613 9.82812C76.9902 9.96484 77.1387 10.0664 77.3066 10.1328C77.4785 10.1953 77.668 10.2266 77.875 10.2266C78.1406 10.2266 78.373 10.1758 78.5723 10.0742C78.7715 9.97266 78.9375 9.81445 79.0703 9.59961C79.207 9.38086 79.3086 9.10156 79.375 8.76172C79.4414 8.41797 79.4746 8.00781 79.4746 7.53125ZM85.5215 2.42188V11H84.4375V3.77539L82.252 4.57227V3.59375L85.3516 2.42188H85.5215Z" fill="#838383"/>
</svg>
